<?xml version="1.0" encoding="UTF-8" standalone="no"?>
<!DOCTYPE svg PUBLIC "-//W3C//DTD SVG 1.1//EN" "http://www.w3.org/Graphics/SVG/1.1/DTD/svg11.dtd">
<svg version="1.1" xmlns="http://www.w3.org/2000/svg" xmlns:xlink="http://www.w3.org/1999/xlink" preserveAspectRatio="xMidYMid meet" viewBox="0 0 321.904761904762 322.9142662244776" width="321.9" height="322.91"><defs><path d="M321.9 160.95C321.9 249.78 249.78 321.9 160.95 321.9C72.12 321.9 0 249.78 0 160.95C0 72.12 72.12 0 160.95 0C249.78 0 321.9 72.12 321.9 160.95Z" id="d22wLrQUB"></path><path d="M116.19 138.57C116.19 156.18 101.89 170.48 84.29 170.48C66.68 170.48 52.38 156.18 52.38 138.57C52.38 120.96 66.68 106.67 84.29 106.67C101.89 106.67 116.19 120.96 116.19 138.57Z" id="b29XHIyKZe"></path><path d="M259.52 91.43C259.52 117.45 238.4 138.57 212.38 138.57C186.36 138.57 165.24 117.45 165.24 91.43C165.24 65.41 186.36 44.29 212.38 44.29C238.4 44.29 259.52 65.41 259.52 91.43Z" id="l13oE1awO5"></path><path d="M224.76 79.52C224.76 92.4 214.31 102.86 201.43 102.86C188.55 102.86 178.1 92.4 178.1 79.52C178.1 66.65 188.55 56.19 201.43 56.19C214.31 56.19 224.76 66.65 224.76 79.52Z" id="a12Zh7WVF"></path><path d="M107.62 144.76C107.62 154.22 99.94 161.9 90.48 161.9C81.01 161.9 73.33 154.22 73.33 144.76C73.33 135.3 81.01 127.62 90.48 127.62C99.94 127.62 107.62 135.3 107.62 144.76Z" id="d59nOxoX7"></path><path d="M180.57 219.51C232.2 205.98 274.71 161.06 281.72 189.58C289.98 223.24 253.13 269.08 195.81 284.44C138.48 299.8 83.14 279.41 73.98 245.25C66.23 216.3 127.89 233.31 180.57 219.51Z" id="c5W9lWs09"></path><path d="M178.33 235.22C182.09 240.93 178.33 287.56 178.33 292C178.33 309.06 164.47 322.91 147.41 322.91C130.35 322.91 116.5 309.06 116.5 292C116.5 284.75 114.88 245.26 119.07 239.98C124.73 232.85 137.6 235.22 147.41 235.22C160.04 235.22 174.56 229.52 178.33 235.22Z" id="aKKKlShZ"></path><path d="M184.4 225.95C236.03 212.42 271.57 179.51 274.12 192.21C276.67 204.91 250.3 224.13 192.97 239.49C135.65 254.85 87.26 257.28 83.82 245.02C80.38 232.76 131.73 239.75 184.4 225.95Z" id="c2TbhL61rL"></path></defs><g><g><g><use xlink:href="#d22wLrQUB" opacity="1" fill="#ffdf05" fill-opacity="1"></use></g><g><use xlink:href="#b29XHIyKZe" opacity="1" fill="#ffffff" fill-opacity="1"></use></g><g><use xlink:href="#l13oE1awO5" opacity="1" fill="#ffffff" fill-opacity="1"></use></g><g><use xlink:href="#a12Zh7WVF" opacity="1" fill="#000000" fill-opacity="1"></use></g><g><use xlink:href="#d59nOxoX7" opacity="1" fill="#000000" fill-opacity="1"></use></g><g><use xlink:href="#c5W9lWs09" opacity="1" fill="#000000" fill-opacity="1"></use></g><g><use xlink:href="#aKKKlShZ" opacity="1" fill="#f929cd" fill-opacity="1"></use></g><g><use xlink:href="#c2TbhL61rL" opacity="1" fill="#ffffff" fill-opacity="1"></use></g></g></g></svg>